<svg xmlns="http://www.w3.org/2000/svg" width="32" height="32"><g color="#000" font-family="sans-serif" font-weight="400"><path fill="#f05542" style="line-height:normal;text-indent:0;text-align:start;text-decoration-line:none;text-decoration-style:solid;text-decoration-color:#000;text-transform:none;block-progression:tb;isolation:auto;mix-blend-mode:normal" d="M25.543 1041.688a.5.5 0 0 0-.324.146l-2.973 2.973a.5.5 0 0 0 .192.826l4.537 1.564a.5.5 0 0 0 .634-.636l-1.564-4.536a.5.5 0 0 0-.502-.338zm-.182 1.417.97 2.813-2.811-.97 1.841-1.843z" overflow="visible" transform="translate(0 -1020.362)"/><path fill="#f05542" style="line-height:normal;text-indent:0;text-align:start;text-decoration-line:none;text-decoration-style:solid;text-decoration-color:#000;text-transform:none;block-progression:tb;isolation:auto;mix-blend-mode:normal" d="M10.23 1026.353a.5.5 0 0 0-.345.147l-2.973 2.97a.5.5 0 0 0 0 .71l6.291 6.29a.5.5 0 1 0 .707-.706l-5.937-5.938 2.265-2.266 5.922 5.922a.5.5 0 1 0 .707-.707l-6.275-6.275a.5.5 0 0 0-.362-.146zm8.92 8.91a.5.5 0 0 0-.35.86l6.065 6.064-2.265 2.266-6.05-6.049a.5.5 0 1 0-.706.707l6.402 6.403a.5.5 0 0 0 .707 0l2.973-2.973a.5.5 0 0 0 0-.707l-6.418-6.418a.5.5 0 0 0-.358-.152z" overflow="visible" transform="translate(0 -1020.362)"/><path fill="#f05542" style="line-height:normal;text-indent:0;text-align:start;text-decoration-line:none;text-decoration-style:solid;text-decoration-color:#000;text-transform:none;block-progression:tb;isolation:auto;mix-blend-mode:normal" d="M7.967 1024.73a2.035 2.035 0 0 0-1.485.596l-.744.744c-.812.812-.789 2.147.03 2.965l1.144 1.145a.5.5 0 0 0 .707 0l2.973-2.973a.5.5 0 0 0 0-.707l-1.145-1.145a2.138 2.138 0 0 0-1.48-.625zm-.008.998c.281.01.564.117.781.334l.791.792-2.265 2.263-.791-.789c-.449-.449-.452-1.128-.03-1.55l.744-.745c.21-.21.489-.31.77-.304z" overflow="visible" transform="translate(0 -1020.362)"/><path fill="#f05542" fill-rule="evenodd" style="line-height:normal;text-indent:0;text-align:start;text-decoration-line:none;text-decoration-style:solid;text-decoration-color:#000;text-transform:none;block-progression:tb;isolation:auto;mix-blend-mode:normal" d="m9.035 1027.992-.705.71 6.438 6.394.705-.71-6.438-6.394zm8.9 8.84-.705.709 6.336 6.293.705-.709-6.335-6.293z" overflow="visible" transform="translate(0 -1020.362)"/><path fill="#2b4255" style="line-height:normal;text-indent:0;text-align:start;text-decoration-line:none;text-decoration-style:solid;text-decoration-color:#000;text-transform:none;block-progression:tb;isolation:auto;mix-blend-mode:normal" d="M8.245 1042.886a.5.5 0 0 0-.707 0l-1.414 1.414a.5.5 0 0 0 0 .707l1.232 1.232a.5.5 0 0 0 .707 0l1.414-1.414a.5.5 0 0 0 0-.707l-1.232-1.232zm-.354 1.06.525.525-.707.707-.525-.524.707-.707z" overflow="visible" transform="translate(0 -1020.362)"/><path fill="#2b4255" fill-rule="evenodd" style="line-height:normal;text-indent:0;text-align:start;text-decoration-line:none;text-decoration-style:solid;text-decoration-color:#000;text-transform:none;block-progression:tb;isolation:auto;mix-blend-mode:normal" d="M6.674 1044.98 5 1046.654l.707.707 1.674-1.674-.707-.706z" overflow="visible" transform="translate(0 -1020.362)"/><path fill="#2b4255" style="line-height:normal;text-indent:0;text-align:start;text-decoration-line:none;text-decoration-style:solid;text-decoration-color:#000;text-transform:none;block-progression:tb;isolation:auto;mix-blend-mode:normal" d="M23.676 1026.004a.5.5 0 0 0-.348.146l-7.07 7.073a.5.5 0 0 0 0 .707l2.183 2.183a.5.5 0 0 0 .707 0l7.07-7.072a.5.5 0 0 0 0-.707l-2.183-2.184a.5.5 0 0 0-.36-.146zm.006 1.207 1.476 1.477-6.363 6.365-1.477-1.477 6.364-6.365z" overflow="visible" transform="translate(0 -1020.362)"/><path fill="#2b4255" style="line-height:normal;text-indent:0;text-align:start;text-decoration-line:none;text-decoration-style:solid;text-decoration-color:#000;text-transform:none;block-progression:tb;isolation:auto;mix-blend-mode:normal" d="M25.088 1024.592a.5.5 0 0 0-.348.146l-1.369 1.37a.5.5 0 1 0 .707.706l1.016-1.015 1.478 1.476-.998.998a.5.5 0 1 0 .707.708l1.352-1.352a.5.5 0 0 0 0-.707l-2.186-2.184a.5.5 0 0 0-.36-.146zm-8.53 8.521a.5.5 0 0 0-.343.153l-9.149 9.146a.5.5 0 0 0 0 .707l2.184 2.184a.5.5 0 0 0 .709 0l2.285-2.285 1.145-1.145a.5.5 0 1 0-.707-.707l-1.145 1.143-1.933 1.933-1.477-1.476 8.795-8.793a.5.5 0 0 0-.363-.86zm2.184 2.184a.5.5 0 0 0-.344.152l-2.287 2.287-2.287 2.287a.5.5 0 1 0 .707.708l2.287-2.288 2.287-2.287a.5.5 0 0 0-.363-.86z" overflow="visible" transform="translate(0 -1020.362)"/><path fill="#2b4255" fill-rule="evenodd" style="line-height:normal;text-indent:0;text-align:start;text-decoration-line:none;text-decoration-style:solid;text-decoration-color:#000;text-transform:none;block-progression:tb;isolation:auto;mix-blend-mode:normal" d="M20.904 1026.063a.5.5 0 0 0-.345.146l-4.239 4.238a.5.5 0 1 0 .707.707l3.885-3.884.717.716 2.42 2.42a.5.5 0 1 0 .707-.707l-2.42-2.42-1.07-1.07a.5.5 0 0 0-.362-.147z" overflow="visible" transform="translate(0 -1020.362)"/></g></svg>